<svg width="38" height="38" viewBox="0 0 38 38" fill="none" xmlns="http://www.w3.org/2000/svg">
<g filter="url(#filter0_d_1329_88)">
<circle cx="19" cy="19" r="15" fill="#EEEFFB"/>
</g>
<path d="M10.9795 14.3645C10.9795 14.207 11.042 14.056 11.1534 13.9447C11.2647 13.8333 11.4158 13.7708 11.5732 13.7708H12.015C12.7671 13.7708 13.2183 14.2766 13.4756 14.7469C13.6474 15.0604 13.7717 15.4238 13.8691 15.7531C13.8954 15.751 13.9218 15.7499 13.9482 15.7499H23.8425C24.4996 15.7499 24.9746 16.3785 24.7941 17.011L23.3469 22.0848C23.2172 22.5399 22.9427 22.9404 22.565 23.2255C22.1873 23.5106 21.727 23.6649 21.2537 23.665H16.5449C16.0679 23.665 15.6041 23.5084 15.2248 23.2192C14.8455 22.93 14.5717 22.5242 14.4454 22.0643L13.8437 19.8698L12.8462 16.5068L12.8455 16.5004C12.722 16.0515 12.6064 15.6312 12.4338 15.3177C12.2683 15.0129 12.1353 14.9583 12.0158 14.9583H11.5732C11.4158 14.9583 11.2647 14.8957 11.1534 14.7843C11.042 14.673 10.9795 14.522 10.9795 14.3645ZM14.9956 19.5816L15.5902 21.75C15.7089 22.179 16.0992 22.4775 16.5449 22.4775H21.2537C21.4688 22.4775 21.6781 22.4074 21.8498 22.2778C22.0215 22.1483 22.1463 21.9663 22.2053 21.7595L23.5805 16.9374H14.2135L14.9845 19.5396L14.9956 19.5816Z" fill="#2F1AC4"/>
<path d="M17.7087 26.0416C17.7087 26.4615 17.5418 26.8642 17.2449 27.1612C16.948 27.4581 16.5453 27.6249 16.1253 27.6249C15.7054 27.6249 15.3027 27.4581 15.0057 27.1612C14.7088 26.8642 14.542 26.4615 14.542 26.0416C14.542 25.6217 14.7088 25.2189 15.0057 24.922C15.3027 24.6251 15.7054 24.4583 16.1253 24.4583C16.5453 24.4583 16.948 24.6251 17.2449 24.922C17.5418 25.2189 17.7087 25.6217 17.7087 26.0416ZM16.5212 26.0416C16.5212 25.9366 16.4795 25.8359 16.4052 25.7617C16.331 25.6875 16.2303 25.6458 16.1253 25.6458C16.0203 25.6458 15.9197 25.6875 15.8454 25.7617C15.7712 25.8359 15.7295 25.9366 15.7295 26.0416C15.7295 26.1466 15.7712 26.2472 15.8454 26.3215C15.9197 26.3957 16.0203 26.4374 16.1253 26.4374C16.2303 26.4374 16.331 26.3957 16.4052 26.3215C16.4795 26.2472 16.5212 26.1466 16.5212 26.0416Z" fill="#2F1AC4"/>
<path d="M23.2507 26.0416C23.2507 26.4615 23.0838 26.8642 22.7869 27.1612C22.49 27.4581 22.0872 27.6249 21.6673 27.6249C21.2474 27.6249 20.8447 27.4581 20.5477 27.1612C20.2508 26.8642 20.084 26.4615 20.084 26.0416C20.084 25.6217 20.2508 25.2189 20.5477 24.922C20.8447 24.6251 21.2474 24.4583 21.6673 24.4583C22.0872 24.4583 22.49 24.6251 22.7869 24.922C23.0838 25.2189 23.2507 25.6217 23.2507 26.0416ZM22.0632 26.0416C22.0632 25.9366 22.0214 25.8359 21.9472 25.7617C21.873 25.6875 21.7723 25.6458 21.6673 25.6458C21.5623 25.6458 21.4617 25.6875 21.3874 25.7617C21.3132 25.8359 21.2715 25.9366 21.2715 26.0416C21.2715 26.1466 21.3132 26.2472 21.3874 26.3215C21.4617 26.3957 21.5623 26.4374 21.6673 26.4374C21.7723 26.4374 21.873 26.3957 21.9472 26.3215C22.0214 26.2472 22.0632 26.1466 22.0632 26.0416Z" fill="#2F1AC4"/>
<defs>
<filter id="filter0_d_1329_88" x="0" y="0" width="38" height="38" filterUnits="userSpaceOnUse" color-interpolation-filters="sRGB">
<feFlood flood-opacity="0" result="BackgroundImageFix"/>
<feColorMatrix in="SourceAlpha" type="matrix" values="0 0 0 0 0 0 0 0 0 0 0 0 0 0 0 0 0 0 127 0" result="hardAlpha"/>
<feOffset/>
<feGaussianBlur stdDeviation="2"/>
<feColorMatrix type="matrix" values="0 0 0 0 0 0 0 0 0 0 0 0 0 0 0 0 0 0 0.05 0"/>
<feBlend mode="normal" in2="BackgroundImageFix" result="effect1_dropShadow_1329_88"/>
<feBlend mode="normal" in="SourceGraphic" in2="effect1_dropShadow_1329_88" result="shape"/>
</filter>
</defs>
</svg>
