<svg width="14" height="14" viewBox="0 0 14 14" fill="none" xmlns="http://www.w3.org/2000/svg">
<path d="M-0.000976562 0.599102C-0.000976562 0.439951 0.0622457 0.287319 0.174782 0.174782C0.287319 0.0622457 0.439951 -0.000976562 0.599102 -0.000976562H1.04556C1.80566 -0.000976562 2.26172 0.51029 2.52175 0.985552C2.69538 1.30239 2.82099 1.66964 2.91941 2.00249C2.94602 2.00038 2.97271 1.99932 2.99942 1.99929H12.9991C13.6632 1.99929 14.1433 2.63457 13.9608 3.27385L12.4983 8.40172C12.3671 8.86167 12.0897 9.26636 11.708 9.55452C11.3263 9.84268 10.8611 9.99862 10.3828 9.99873H5.62376C5.14169 9.99875 4.67296 9.84045 4.2896 9.54817C3.90625 9.25588 3.6295 8.84579 3.50188 8.38092L2.8938 6.16303L1.88567 2.76419L1.88487 2.75778C1.76005 2.30413 1.64324 1.87927 1.46882 1.56243C1.30159 1.25439 1.16718 1.19918 1.04636 1.19918H0.599102C0.439951 1.19918 0.287319 1.13596 0.174782 1.02342C0.0622457 0.910885 -0.000976562 0.758253 -0.000976562 0.599102ZM4.05795 5.87179L4.65883 8.06328C4.77885 8.49694 5.1733 8.79857 5.62376 8.79857H10.3828C10.6002 8.79857 10.8116 8.72773 10.9852 8.59679C11.1587 8.46585 11.2849 8.28193 11.3445 8.07288L12.7343 3.19944H3.26745L4.04675 5.82939L4.05795 5.87179Z" fill="white"/>
<path d="M6.80003 12.4007C6.80003 12.8251 6.63143 13.2322 6.33134 13.5323C6.03124 13.8324 5.62422 14.001 5.19982 14.001C4.77542 14.001 4.3684 13.8324 4.0683 13.5323C3.7682 13.2322 3.59961 12.8251 3.59961 12.4007C3.59961 11.9763 3.7682 11.5693 4.0683 11.2692C4.3684 10.9691 4.77542 10.8005 5.19982 10.8005C5.62422 10.8005 6.03124 10.9691 6.33134 11.2692C6.63143 11.5693 6.80003 11.9763 6.80003 12.4007ZM5.59987 12.4007C5.59987 12.2946 5.55772 12.1929 5.4827 12.1179C5.40767 12.0428 5.30592 12.0007 5.19982 12.0007C5.09372 12.0007 4.99196 12.0428 4.91694 12.1179C4.84191 12.1929 4.79977 12.2946 4.79977 12.4007C4.79977 12.5068 4.84191 12.6086 4.91694 12.6836C4.99196 12.7587 5.09372 12.8008 5.19982 12.8008C5.30592 12.8008 5.40767 12.7587 5.4827 12.6836C5.55772 12.6086 5.59987 12.5068 5.59987 12.4007Z" fill="white"/>
<path d="M12.4006 12.4007C12.4006 12.8251 12.232 13.2322 11.9319 13.5323C11.6318 13.8324 11.2248 14.001 10.8004 14.001C10.376 14.001 9.96898 13.8324 9.66889 13.5323C9.36879 13.2322 9.2002 12.8251 9.2002 12.4007C9.2002 11.9763 9.36879 11.5693 9.66889 11.2692C9.96898 10.9691 10.376 10.8005 10.8004 10.8005C11.2248 10.8005 11.6318 10.9691 11.9319 11.2692C12.232 11.5693 12.4006 11.9763 12.4006 12.4007ZM11.2005 12.4007C11.2005 12.2946 11.1583 12.1929 11.0833 12.1179C11.0083 12.0428 10.9065 12.0007 10.8004 12.0007C10.6943 12.0007 10.5925 12.0428 10.5175 12.1179C10.4425 12.1929 10.4004 12.2946 10.4004 12.4007C10.4004 12.5068 10.4425 12.6086 10.5175 12.6836C10.5925 12.7587 10.6943 12.8008 10.8004 12.8008C10.9065 12.8008 11.0083 12.7587 11.0833 12.6836C11.1583 12.6086 11.2005 12.5068 11.2005 12.4007Z" fill="white"/>
</svg>
